<svg width="220" height="52" viewBox="0 0 220 52" fill="none" xmlns="http://www.w3.org/2000/svg">
<path d="M180.513 8.74654C179.279 8.74654 177.633 9.01142 177.167 9.20297C176.81 9.34088 174.632 10.9696 173.537 11.7927L175.074 11.7598C175.266 11.7598 175.945 11.7828 176.353 11.7565C176.76 11.7303 177.33 11.4665 177.496 11.4665C177.605 11.4665 176.905 11.7478 176.863 11.7927C175.076 13.73 174.313 14.6669 172.66 18.3172C171.258 21.4137 170.558 24.4084 170.558 26.6555C170.558 28.9026 170.987 31.2788 171.619 33.4438C172.689 37.1445 174.484 39.1004 176.842 39.2132C180.658 39.3971 183.601 36.5939 185.41 31.3029C186.672 27.6296 187.533 23.9377 187.533 20.6202C187.533 18.7561 187.106 16.2628 186.227 14.0967C184.965 10.9707 182.847 8.74654 180.514 8.74654H180.513ZM182.86 29.7738C181.636 33.7897 180.209 36.2886 177.658 36.6235C176.108 36.8282 175.074 35.8901 174.199 32.9371C173.71 31.2865 173.496 29.9052 173.496 28.0401C173.496 27.3822 173.71 25.423 174.34 23.0391C176.282 15.7188 178.393 12.5873 180.514 12.5468C180.679 12.5435 181.294 13.0941 181.759 13.4235C181.923 13.012 182.036 12.9649 182.036 12.7186C183.239 13.4312 183.421 14.1755 184.104 16.0942C184.651 17.6299 184.676 18.6511 184.676 20.0488C184.676 22.8454 184.007 26.0086 182.86 29.7738ZM74.7256 41.7186C71.7594 42.1115 67.3122 42.9215 61.3842 44.1507L52.4888 45.9118C50.754 45.9118 49.8871 44.7067 49.8871 42.3064L55.0895 2.30515H57.4559C57.8488 2.9783 58.0458 4.29175 58.0458 6.2488L53.88 42.4038C55.3927 42.2932 58.5887 41.7908 63.4627 40.8977C67.4961 40.1709 70.6068 39.8086 72.7926 39.8086C73.5205 39.8086 74.1641 39.4266 74.7256 41.7175V41.7186ZM23.2207 46.134C28.5271 44.0587 32.2748 42.7726 34.4628 42.2812C33.3146 44.4681 30.1952 46.5444 25.1088 48.5135C20.5676 50.2604 16.7662 51.1371 13.7037 51.1371C4.56644 51.1382 0 46.354 0 36.7877C0 34.2746 0.794639 30.3649 2.37954 25.0629C7.35643 8.44554 14.0594 0.135769 22.483 0.135769C23.085 0.135769 24.0964 0.491495 25.5193 1.20185C25.5193 1.36604 25.5861 1.63967 25.7251 2.02167C25.8608 2.40366 25.9297 2.6773 25.9297 2.84148C25.6561 2.84148 25.2456 2.78785 24.6984 2.6773C24.1522 2.56894 23.7417 2.51421 23.4681 2.51421C19.3099 2.51421 15.4265 5.4662 11.8156 11.3691C9.90124 14.54 8.04161 18.7211 6.23671 23.9136C4.26763 29.544 3.28144 33.9725 3.28144 37.197C3.28144 40.4215 3.99071 43.0178 5.41471 44.9869C7.05543 47.2307 9.43497 48.3482 12.5544 48.3482C15.8895 48.3482 19.4457 47.6105 23.2197 46.134H23.2207ZM40.9513 8.74654C39.7166 8.74654 38.0715 9.01142 37.6052 9.20297C37.2484 9.34088 35.0714 10.9696 33.9746 11.7927L35.5125 11.7598C35.704 11.7598 36.3837 11.7828 36.7898 11.7565C37.197 11.7303 37.7672 11.4665 37.9325 11.4665C38.042 11.4665 37.3415 11.7478 37.2999 11.7927C35.5125 13.73 34.7496 14.6669 33.0968 18.3172C31.6947 21.4137 30.9953 24.4084 30.9953 26.6555C30.9953 28.9026 31.4243 31.2788 32.0559 33.4438C33.1264 37.1445 34.9214 39.1004 37.2791 39.2132C41.0946 39.3971 44.0379 36.5939 45.8472 31.3029C47.1092 27.6296 47.9695 23.9377 47.9695 20.6202C47.9695 18.7561 47.5426 16.2628 46.6637 14.0967C45.4017 10.9707 43.2837 8.74654 40.9513 8.74654ZM43.2969 29.7738C42.0732 33.7897 40.6459 36.2886 38.0945 36.6235C36.5446 36.8282 35.5114 35.8901 34.6357 32.9371C34.1454 31.2865 33.933 29.9052 33.933 28.0401C33.933 27.3822 34.1465 25.423 34.7769 23.0391C36.7187 15.7188 38.83 12.5873 40.9513 12.5468C41.1154 12.5435 41.7306 13.0941 42.1958 13.4235C42.3599 13.012 42.4727 12.9649 42.4727 12.7186C43.6756 13.4312 43.8584 14.1755 44.5414 16.0942C45.0875 17.6299 45.1127 18.6511 45.1127 20.0488C45.1127 22.8454 44.4439 26.0086 43.2969 29.7738ZM219.937 8.31748C219.611 10.5252 216.257 12.9452 209.875 15.5765C208.115 16.3033 204.462 17.7163 198.915 19.8113L195.781 41.0586C195.774 41.434 195.888 42.5077 196.123 44.282C196.306 45.718 196.359 46.713 196.278 47.2646C196.088 48.5518 195.612 49.5391 194.853 50.2265C193.479 49.9769 192.669 48.7773 192.422 46.6265C192.442 44.8895 192.444 43.1284 192.424 41.3388L195.079 21.4312C194.282 21.7366 192.945 22.0332 191.068 22.32C191.157 21.7224 191.831 20.8117 193.094 19.588C194.145 18.5219 195.053 17.7864 195.818 17.3814C195.935 17.2117 196.276 15.5459 196.836 12.3859C197.201 10.2307 197.868 8.8965 198.838 8.38097C199.557 9.23909 199.839 10.361 199.681 11.7478C199.522 13.4629 199.498 14.587 199.61 15.1201C201.757 14.9679 204.85 14.1536 208.895 12.6814C213.884 10.8787 216.516 9.0355 216.794 7.14851C217.059 5.35455 214.285 4.03016 208.476 3.17422C207.921 3.09213 206.135 2.89949 203.118 2.5963C200.981 2.3763 197.808 2.73093 193.595 3.6602C189.382 4.59056 186.251 4.97584 184.201 4.81385C186.007 2.44963 189.896 0.954487 195.864 0.329503C200.499 -0.161947 204.862 -0.10722 208.959 0.495873C216.875 1.66266 220.535 4.26986 219.939 8.31529L219.937 8.31748ZM163.761 15.5765C162.001 16.3033 158.348 17.7163 152.8 19.8113L149.667 41.0586C149.66 41.434 149.774 42.5077 150.008 44.282C150.192 45.718 150.245 46.713 150.164 47.2646C149.973 48.5518 149.498 49.5391 148.738 50.2265C147.364 49.9769 146.554 48.7773 146.308 46.6265C146.327 44.8895 146.33 43.1284 146.31 41.3388L148.965 21.4312C148.167 21.7366 146.831 22.0332 144.954 22.32C145.041 21.7224 145.717 20.8117 146.98 19.588C148.03 18.5219 148.939 17.7864 149.704 17.3814C149.821 17.2117 150.162 15.5459 150.722 12.3859C151.088 10.2307 151.754 8.8965 152.724 8.38097C153.443 9.23909 153.724 10.361 153.568 11.7478C153.409 13.4629 153.385 14.587 153.497 15.1201C155.644 14.9679 158.737 14.1536 162.782 12.6814C167.769 10.8787 170.403 9.0355 170.681 7.14851C170.946 5.35455 168.172 4.03016 162.362 3.17422C161.807 3.09213 160.022 2.89949 157.005 2.5963C154.868 2.3763 151.695 2.73093 147.482 3.6602C143.269 4.59056 140.138 4.97584 138.088 4.81385C139.894 2.44963 143.783 0.954487 149.751 0.329503C154.385 -0.161947 158.749 -0.10722 162.846 0.495873C170.762 1.66266 174.422 4.26986 173.826 8.31529C173.501 10.523 170.145 12.943 163.765 15.5743L163.761 15.5765ZM137.573 35.5213C139.728 38.1186 141.14 40.5277 141.735 42.4125C141.624 42.511 141.317 42.8109 141.163 43.0649C141.01 43.3177 140.701 43.5782 140.592 43.6767C139.855 43.0802 137.268 40.3745 133.329 35.7664C128.536 30.17 125.165 26.4322 123.046 24.3296C122.888 24.1709 122.843 24.0395 122.834 24.0034C122.841 24.0329 122.854 24.1293 122.843 24.3296L122.068 38.9078C119.865 37.8877 119.322 34.2801 119.661 28.0193C120.045 20.9244 120.739 14.8519 121.619 10.8535C122.778 11.3702 123.905 12.2808 123.782 15.1759L123.619 16.9699C123.559 18.083 123.447 18.3249 123.582 19.0648C129.359 15.5404 132.561 12.8631 134.187 9.91552C133.705 9.157 133.829 9.39451 132.84 9.05958L130.311 8.87023C126.655 8.67212 123.294 9.29819 119.824 10.8535C116.561 12.3115 114.203 14.4393 112.745 16.9097C112.656 20.4286 112.158 24.5036 111.172 28.9934C109.562 36.3061 107.339 40.4358 103.827 40.7368C101.135 40.9666 98.5658 37.9906 96.9722 31.3992C96.0451 27.565 95.5438 24.1008 95.5438 21.4914C95.5438 19.2465 95.7638 16.1194 96.159 12.236C96.553 12.0236 97.4527 11.6164 97.6661 11.6241C98.8898 11.6646 99.4207 13.2966 99.4207 16.0274C99.4207 17.3321 99.3419 18.9455 99.1755 20.5534L98.9303 22.9997C98.9303 24.4861 99.2215 27.1371 100.196 30.8695C101.667 36.5086 102.32 37.9227 103.844 37.949C106.042 37.9884 106.917 35.0408 108.397 28.3411C109.382 23.8786 109.58 20.4735 109.58 18.1071C109.58 14.2247 109 12.051 107.907 10.6861L107.989 8.72903H110.437C111.363 9.82358 112.114 11.3975 112.493 13.2287C113.271 12.2305 114.472 11.2629 116.152 10.2833C117.881 9.29601 120.031 8.36674 122.802 7.47031C125.86 6.45019 128.394 5.87118 130.066 5.96203C131.528 6.04083 132.963 6.27835 134.309 6.98105C136.197 7.96613 137.15 9.10665 137.084 10.3238C137.001 11.855 135.004 14.3681 131.535 17.215C128.757 19.507 126.744 20.919 124.843 21.8636C126.158 23.4627 128.111 25.4953 131.004 28.4286C134.169 31.6783 136.397 34.094 137.573 35.5235V35.5213ZM83.8607 8.74654C82.626 8.74654 80.9809 9.01142 80.5146 9.20297C80.1578 9.34088 77.9808 10.9696 76.884 11.7927L78.4219 11.7598C78.6134 11.7598 79.292 11.7828 79.6992 11.7565C80.1064 11.7303 80.6766 11.4665 80.8419 11.4665C80.9514 11.4665 80.2508 11.7478 80.2093 11.7927C78.4219 13.73 77.659 14.6669 76.0062 18.3172C74.6041 21.4137 73.9047 24.4084 73.9047 26.6555C73.9047 28.9026 74.3337 31.2788 74.9653 33.4438C76.0358 37.1445 77.8308 39.1004 80.1885 39.2132C84.004 39.3971 86.9473 36.5939 88.7566 31.3029C90.0186 27.6296 90.8789 23.9377 90.8789 20.6202C90.8789 18.7561 90.452 16.2628 89.5731 14.0967C88.3111 10.9707 86.1931 8.74654 83.8607 8.74654ZM86.2074 29.7738C84.9837 33.7897 83.5564 36.2886 81.005 36.6235C79.4551 36.8282 78.4219 35.8901 77.5462 32.9371C77.0559 31.2865 76.8435 29.9052 76.8435 28.0401C76.8435 27.3822 77.057 25.423 77.6874 23.0391C79.6292 15.7188 81.7405 12.5873 83.8617 12.5468C84.0259 12.5435 84.6411 13.0941 85.1062 13.4235C85.2704 13.012 85.3832 12.9649 85.3832 12.7186C86.5861 13.4312 86.7689 14.1755 87.4519 16.0942C87.998 17.6299 88.0232 18.6511 88.0232 20.0488C88.0232 22.8454 87.3555 26.0086 86.2074 29.7738Z" fill="black"></path>
</svg>
