<svg width="59" height="40" viewBox="0 0 59 40" fill="none" xmlns="http://www.w3.org/2000/svg">
<path d="M33.6644 20.6797H33.073L30.7986 31.6814H31.3899C32.2239 31.6814 32.5908 31.4209 32.9578 29.6332L34.3831 22.7759C34.7743 20.8923 34.6863 20.6797 33.6644 20.6797Z" fill="#CD1500"/>
<path d="M10.5472 20.7037L9.71023 24.851H10.3471C10.8505 24.851 11.272 24.7792 11.5449 23.4137L11.6814 22.7309C12.0665 20.8474 11.9301 20.7037 11.2144 20.7037H10.5472Z" fill="#CD1500"/>
<path d="M9.86792 27.1118H9.25838L8.27584 31.6814H9.01881C9.62835 31.6814 9.99226 31.4209 10.244 30.2441L10.5169 28.9474C10.8353 27.4173 10.6928 27.1088 9.87096 27.1088L9.86792 27.1118Z" fill="#CD1500"/>
<path d="M21.5554 28.3156L22.3317 20.563H21.9921L19.7631 28.3156H21.5554Z" fill="#CD1500"/>
<path d="M49.1243 28.3156L49.9037 20.563H49.564L47.3321 28.3156H49.1243Z" fill="#CD1500"/>
<path d="M51.7323 12.987H10.5169C4.70955 12.987 0 17.6374 0 23.3748V39.8623H47.8506C53.658 39.8623 58.3675 35.2119 58.3675 29.4775V9.46249C57.5487 11.5526 55.3896 12.987 51.7323 12.987ZM14.4168 29.8218C13.9164 32.2713 12.3576 33.9452 9.01274 33.9212H3.86954L7.02339 18.4878H12.1696C15.6722 18.4878 16.3364 20.0659 15.833 22.4225C15.4023 24.5426 14.7625 25.956 12.7185 25.956C14.7958 26.1686 14.8261 27.8395 14.5077 29.3727L14.4168 29.8188V29.8218ZM25.4067 33.9212H21.149L21.3734 30.5764H19.0353L18.0316 33.9212H14.629L20.1574 18.4878H25.8191L25.4067 33.9212ZM31.5203 33.9212H26.2801L29.4764 18.4878H34.7167C38.0494 18.4878 38.9471 20.3713 38.4406 22.7759L37.0153 29.6332C36.5089 32.0826 34.9077 33.9212 31.5203 33.9212ZM37.3216 33.9212L40.3845 18.4878H44.3329L41.2457 33.9212H37.3216ZM52.9757 33.9212H48.7179L48.9424 30.5764H46.6043L45.6005 33.9212H42.198L47.7263 18.4878H53.3881L52.9757 33.9212Z" fill="#CD1500"/>
<path d="M52.2782 0C49.0819 0 46.4921 2.55727 46.4921 5.71343V12.0677H52.3237C55.6625 12.0677 58.3706 9.39362 58.3706 6.09672V0H52.2782ZM57.0514 4.51565C57.2 4.51565 57.3183 4.63243 57.3183 4.77916C57.3183 4.92589 57.2 5.04267 57.0514 5.04267H53.8096L49.9643 8.83965H55.5533C55.7019 8.83965 55.8202 8.95643 55.8202 9.10316C55.8202 9.24989 55.7019 9.36667 55.5533 9.36667H49.4276L47.6384 11.1334C47.5868 11.1843 47.5171 11.2113 47.4503 11.2113C47.3836 11.2113 47.3139 11.1843 47.2623 11.1334C47.1592 11.0316 47.1592 10.8639 47.2623 10.7591L50.8984 7.16874V2.4315C50.8984 2.28477 51.0166 2.16799 51.1652 2.16799C51.3138 2.16799 51.4321 2.28477 51.4321 2.4315V6.64171L57.2182 0.928283C57.3213 0.826471 57.4911 0.826471 57.5973 0.928283C57.7034 1.03009 57.7004 1.19778 57.5973 1.30259L54.3464 4.51265H57.0544L57.0514 4.51565Z" fill="#325816"/>
<path d="M40.8424 2.29675H35.6992V7.16574C35.6992 9.87274 37.9221 12.0707 40.6665 12.0707H45.5975V6.99206C45.5975 4.39886 43.4686 2.29675 40.8424 2.29675ZM44.5785 11.1364C44.527 11.1873 44.4572 11.2143 44.3905 11.2143C44.3238 11.2143 44.254 11.1873 44.2025 11.1364L41.7188 8.68394H37.0093C36.8607 8.68394 36.7424 8.56715 36.7424 8.42042C36.7424 8.27369 36.8607 8.15691 37.0093 8.15691H41.1851L36.4452 3.47657C36.3421 3.37476 36.3421 3.20707 36.4452 3.10226C36.5483 2.99745 36.7181 3.00045 36.8243 3.10226L39.4202 5.66552V3.29091C39.4202 3.14418 39.5384 3.0274 39.687 3.0274C39.8356 3.0274 39.9539 3.14418 39.9539 3.29091V6.19554L42.9986 9.20198V4.81809C42.9986 4.67136 43.1168 4.55457 43.2654 4.55457C43.414 4.55457 43.5323 4.67136 43.5323 4.81809V9.729L44.5846 10.7681C44.6877 10.8699 44.6877 11.0376 44.5846 11.1424L44.5785 11.1364Z" fill="#325816"/>
<path d="M55.3683 38.4728C55.3683 38.2602 55.4078 38.0626 55.4896 37.8769C55.5715 37.6913 55.6807 37.5296 55.8202 37.3918C55.9597 37.2541 56.1234 37.1463 56.3115 37.0654C56.4995 36.9846 56.6996 36.9457 56.9149 36.9457C57.1302 36.9457 57.3304 36.9846 57.5184 37.0654C57.7064 37.1463 57.8702 37.2541 58.0097 37.3918C58.1492 37.5296 58.2584 37.6913 58.3402 37.8769C58.4221 38.0626 58.4615 38.2602 58.4615 38.4728C58.4615 38.6854 58.4221 38.8831 58.3402 39.0687C58.2584 39.2544 58.1492 39.4161 58.0097 39.5538C57.8702 39.6916 57.7064 39.7994 57.5184 39.8802C57.3304 39.9611 57.1302 40 56.9149 40C56.6996 40 56.4995 39.9611 56.3115 39.8802C56.1234 39.7994 55.9597 39.6916 55.8202 39.5538C55.6807 39.4161 55.5715 39.2544 55.4896 39.0687C55.4078 38.8831 55.3683 38.6854 55.3683 38.4728ZM58.1553 38.4728C58.1553 38.3021 58.1219 38.1404 58.0582 37.9877C57.9915 37.835 57.9036 37.7033 57.7944 37.5895C57.6822 37.4757 57.5518 37.3888 57.4001 37.32C57.2485 37.2541 57.0878 37.2211 56.918 37.2211C56.7481 37.2211 56.5874 37.2541 56.4358 37.32C56.2842 37.3858 56.1538 37.4757 56.0416 37.5895C55.9294 37.7033 55.8414 37.835 55.7777 37.9877C55.711 38.1404 55.6807 38.3021 55.6807 38.4728C55.6807 38.6435 55.7141 38.8052 55.7777 38.9579C55.8445 39.1106 55.9324 39.2424 56.0416 39.3562C56.1538 39.47 56.2842 39.5568 56.4358 39.6257C56.5874 39.6916 56.7481 39.7245 56.918 39.7245C57.0878 39.7245 57.2515 39.6916 57.4001 39.6257C57.5518 39.5598 57.6822 39.47 57.7944 39.3562C57.9066 39.2424 57.9945 39.1106 58.0582 38.9579C58.1219 38.8052 58.1553 38.6435 58.1553 38.4728ZM56.3297 39.3622V37.5805H57.015C57.4274 37.5805 57.6337 37.7482 57.6337 38.0835C57.6337 38.1674 57.6215 38.2393 57.5973 38.2991C57.573 38.359 57.5396 38.4069 57.4972 38.4459C57.4547 38.4848 57.4062 38.5148 57.3486 38.5357C57.294 38.5567 57.2334 38.5716 57.1697 38.5806L57.6882 39.3622H57.3456L56.827 38.5896H56.6087V39.3622H56.3266H56.3297ZM56.6147 37.835V38.3381H56.9362C57.0757 38.3381 57.1818 38.3171 57.2516 38.2782C57.3213 38.2363 57.3577 38.1704 57.3577 38.0746C57.3577 37.9937 57.3274 37.9338 57.2667 37.8949C57.2061 37.856 57.1272 37.838 57.0302 37.838H56.6208L56.6147 37.835Z" fill="#252525"/>
<path d="M52.2782 0C49.0819 0 46.4921 2.55727 46.4921 5.71343V12.0677H52.3237C55.6625 12.0677 58.3706 9.39362 58.3706 6.09672V0H52.2782ZM57.0514 4.51565C57.2 4.51565 57.3183 4.63243 57.3183 4.77916C57.3183 4.92589 57.2 5.04267 57.0514 5.04267H53.8096L49.9643 8.83965H55.5533C55.7019 8.83965 55.8202 8.95643 55.8202 9.10316C55.8202 9.24989 55.7019 9.36667 55.5533 9.36667H49.4276L47.6384 11.1334C47.5868 11.1843 47.5171 11.2113 47.4503 11.2113C47.3836 11.2113 47.3139 11.1843 47.2623 11.1334C47.1592 11.0316 47.1592 10.8639 47.2623 10.7591L50.8984 7.16874V2.4315C50.8984 2.28477 51.0166 2.16799 51.1652 2.16799C51.3138 2.16799 51.4321 2.28477 51.4321 2.4315V6.64171L57.2182 0.928283C57.3213 0.826471 57.4911 0.826471 57.5973 0.928283C57.7034 1.03009 57.7004 1.19778 57.5973 1.30259L54.3464 4.51265H57.0544L57.0514 4.51565Z" fill="#325816"/>
<path d="M52.2782 0C49.0819 0 46.4921 2.55727 46.4921 5.71343V12.0677H52.3237C55.6625 12.0677 58.3706 9.39362 58.3706 6.09672V0H52.2782ZM57.0514 4.51565C57.2 4.51565 57.3183 4.63243 57.3183 4.77916C57.3183 4.92589 57.2 5.04267 57.0514 5.04267H53.8096L49.9643 8.83965H55.5533C55.7019 8.83965 55.8202 8.95643 55.8202 9.10316C55.8202 9.24989 55.7019 9.36667 55.5533 9.36667H49.4276L47.6384 11.1334C47.5868 11.1843 47.5171 11.2113 47.4503 11.2113C47.3836 11.2113 47.3139 11.1843 47.2623 11.1334C47.1592 11.0316 47.1592 10.8639 47.2623 10.7591L50.8984 7.16874V2.4315C50.8984 2.28477 51.0166 2.16799 51.1652 2.16799C51.3138 2.16799 51.4321 2.28477 51.4321 2.4315V6.64171L57.2182 0.928283C57.3213 0.826471 57.4911 0.826471 57.5973 0.928283C57.7034 1.03009 57.7004 1.19778 57.5973 1.30259L54.3464 4.51265H57.0544L57.0514 4.51565Z" fill="#325816"/>
<path d="M52.2782 0C49.0819 0 46.4921 2.55727 46.4921 5.71343V12.0677H52.3237C55.6625 12.0677 58.3706 9.39362 58.3706 6.09672V0H52.2782ZM57.0514 4.51565C57.2 4.51565 57.3183 4.63243 57.3183 4.77916C57.3183 4.92589 57.2 5.04267 57.0514 5.04267H53.8096L49.9643 8.83965H55.5533C55.7019 8.83965 55.8202 8.95643 55.8202 9.10316C55.8202 9.24989 55.7019 9.36667 55.5533 9.36667H49.4276L47.6384 11.1334C47.5868 11.1843 47.5171 11.2113 47.4503 11.2113C47.3836 11.2113 47.3139 11.1843 47.2623 11.1334C47.1592 11.0316 47.1592 10.8639 47.2623 10.7591L50.8984 7.16874V2.4315C50.8984 2.28477 51.0166 2.16799 51.1652 2.16799C51.3138 2.16799 51.4321 2.28477 51.4321 2.4315V6.64171L57.2182 0.928283C57.3213 0.826471 57.4911 0.826471 57.5973 0.928283C57.7034 1.03009 57.7004 1.19778 57.5973 1.30259L54.3464 4.51265H57.0544L57.0514 4.51565Z" fill="#325816"/>
<path d="M52.2782 0C49.0819 0 46.4921 2.55727 46.4921 5.71343V12.0677H52.3237C55.6625 12.0677 58.3706 9.39362 58.3706 6.09672V0H52.2782ZM57.0514 4.51565C57.2 4.51565 57.3183 4.63243 57.3183 4.77916C57.3183 4.92589 57.2 5.04267 57.0514 5.04267H53.8096L49.9643 8.83965H55.5533C55.7019 8.83965 55.8202 8.95643 55.8202 9.10316C55.8202 9.24989 55.7019 9.36667 55.5533 9.36667H49.4276L47.6384 11.1334C47.5868 11.1843 47.5171 11.2113 47.4503 11.2113C47.3836 11.2113 47.3139 11.1843 47.2623 11.1334C47.1592 11.0316 47.1592 10.8639 47.2623 10.7591L50.8984 7.16874V2.4315C50.8984 2.28477 51.0166 2.16799 51.1652 2.16799C51.3138 2.16799 51.4321 2.28477 51.4321 2.4315V6.64171L57.2182 0.928283C57.3213 0.826471 57.4911 0.826471 57.5973 0.928283C57.7034 1.03009 57.7004 1.19778 57.5973 1.30259L54.3464 4.51265H57.0544L57.0514 4.51565Z" fill="#325816"/>
<path d="M52.2782 0C49.0819 0 46.4921 2.55727 46.4921 5.71343V12.0677H52.3237C55.6625 12.0677 58.3706 9.39362 58.3706 6.09672V0H52.2782ZM57.0514 4.51565C57.2 4.51565 57.3183 4.63243 57.3183 4.77916C57.3183 4.92589 57.2 5.04267 57.0514 5.04267H53.8096L49.9643 8.83965H55.5533C55.7019 8.83965 55.8202 8.95643 55.8202 9.10316C55.8202 9.24989 55.7019 9.36667 55.5533 9.36667H49.4276L47.6384 11.1334C47.5868 11.1843 47.5171 11.2113 47.4503 11.2113C47.3836 11.2113 47.3139 11.1843 47.2623 11.1334C47.1592 11.0316 47.1592 10.8639 47.2623 10.7591L50.8984 7.16874V2.4315C50.8984 2.28477 51.0166 2.16799 51.1652 2.16799C51.3138 2.16799 51.4321 2.28477 51.4321 2.4315V6.64171L57.2182 0.928283C57.3213 0.826471 57.4911 0.826471 57.5973 0.928283C57.7034 1.03009 57.7004 1.19778 57.5973 1.30259L54.3464 4.51265H57.0544L57.0514 4.51565Z" fill="#325816"/>
<path d="M52.2782 0C49.0819 0 46.4921 2.55727 46.4921 5.71343V12.0677H52.3237C55.6625 12.0677 58.3706 9.39362 58.3706 6.09672V0H52.2782ZM57.0514 4.51565C57.2 4.51565 57.3183 4.63243 57.3183 4.77916C57.3183 4.92589 57.2 5.04267 57.0514 5.04267H53.8096L49.9643 8.83965H55.5533C55.7019 8.83965 55.8202 8.95643 55.8202 9.10316C55.8202 9.24989 55.7019 9.36667 55.5533 9.36667H49.4276L47.6384 11.1334C47.5868 11.1843 47.5171 11.2113 47.4503 11.2113C47.3836 11.2113 47.3139 11.1843 47.2623 11.1334C47.1592 11.0316 47.1592 10.8639 47.2623 10.7591L50.8984 7.16874V2.4315C50.8984 2.28477 51.0166 2.16799 51.1652 2.16799C51.3138 2.16799 51.4321 2.28477 51.4321 2.4315V6.64171L57.2182 0.928283C57.3213 0.826471 57.4911 0.826471 57.5973 0.928283C57.7034 1.03009 57.7004 1.19778 57.5973 1.30259L54.3464 4.51265H57.0544L57.0514 4.51565Z" fill="#325816"/>
<path d="M52.2782 0C49.0819 0 46.4921 2.55727 46.4921 5.71343V12.0677H52.3237C55.6625 12.0677 58.3706 9.39362 58.3706 6.09672V0H52.2782ZM57.0514 4.51565C57.2 4.51565 57.3183 4.63243 57.3183 4.77916C57.3183 4.92589 57.2 5.04267 57.0514 5.04267H53.8096L49.9643 8.83965H55.5533C55.7019 8.83965 55.8202 8.95643 55.8202 9.10316C55.8202 9.24989 55.7019 9.36667 55.5533 9.36667H49.4276L47.6384 11.1334C47.5868 11.1843 47.5171 11.2113 47.4503 11.2113C47.3836 11.2113 47.3139 11.1843 47.2623 11.1334C47.1592 11.0316 47.1592 10.8639 47.2623 10.7591L50.8984 7.16874V2.4315C50.8984 2.28477 51.0166 2.16799 51.1652 2.16799C51.3138 2.16799 51.4321 2.28477 51.4321 2.4315V6.64171L57.2182 0.928283C57.3213 0.826471 57.4911 0.826471 57.5973 0.928283C57.7034 1.03009 57.7004 1.19778 57.5973 1.30259L54.3464 4.51265H57.0544L57.0514 4.51565Z" fill="#325816"/>
</svg>
